<?xml version="1.0" standalone="no"?>
<!DOCTYPE svg PUBLIC "-//W3C//DTD SVG 20010904//EN"
 "http://www.w3.org/TR/2001/REC-SVG-20010904/DTD/svg10.dtd">
<svg version="1.0" xmlns="http://www.w3.org/2000/svg"
 width="2264.000000pt" height="2264.000000pt" viewBox="0 0 2264.000000 2264.000000"
 preserveAspectRatio="xMidYMid meet">
<metadata>
Created by potrace 1.14, written by Peter Selinger 2001-2017
</metadata>
<g transform="translate(0.000000,2264.000000) scale(0.100000,-0.100000)"
fill="#000000" stroke="none">
<path d="M2936 13848 c-9 -12 -16 -28 -16 -35 0 -7 -4 -13 -10 -13 -5 0 -10
-5 -10 -10 0 -6 -16 -36 -35 -66 -19 -30 -35 -56 -35 -59 0 -2 -62 -111 -138
-242 -76 -131 -141 -245 -145 -253 -4 -8 -16 -28 -27 -45 -11 -16 -23 -37 -27
-45 -4 -8 -33 -59 -65 -113 -32 -54 -58 -100 -58 -102 0 -2 -18 -33 -40 -69
-22 -36 -40 -70 -40 -76 0 -5 -4 -10 -10 -10 -5 0 -10 -4 -10 -10 0 -5 -13
-31 -29 -58 -15 -26 -39 -68 -53 -93 -44 -77 -170 -293 -189 -324 -10 -16 -22
-37 -26 -45 -3 -8 -54 -96 -111 -195 -58 -99 -114 -196 -125 -215 -88 -155
-112 -197 -124 -211 -7 -9 -11 -18 -8 -21 3 -3 -1 -11 -10 -18 -8 -7 -15 -19
-15 -26 0 -8 -4 -14 -9 -14 -5 0 -11 -8 -14 -17 -6 -18 -41 -81 -102 -183 -18
-30 -77 -131 -130 -225 -54 -93 -122 -210 -150 -260 -29 -49 -96 -166 -150
-260 -54 -93 -139 -240 -188 -325 -49 -85 -101 -175 -115 -200 -14 -25 -36
-62 -49 -82 -12 -21 -23 -39 -23 -42 0 -2 -17 -33 -39 -67 -21 -35 -55 -95
-76 -134 -21 -38 -41 -72 -44 -75 -3 -3 -13 -18 -21 -35 -8 -16 -18 -32 -21
-35 -3 -3 -12 -18 -21 -35 -15 -30 -32 -59 -238 -415 -116 -202 -139 -241
-162 -281 -7 -13 -17 -27 -23 -31 -5 -4 -7 -9 -4 -12 3 -4 1334 -5 2957 -4
l2951 3 -100 172 c-54 95 -99 177 -99 183 0 5 -4 10 -10 10 -5 0 -10 5 -10 10
0 6 -12 29 -27 53 -15 23 -37 60 -49 82 -34 64 -48 89 -60 105 -7 8 -25 39
-40 68 -16 29 -39 69 -51 90 -12 20 -28 48 -36 62 -8 14 -37 65 -65 113 -29
49 -52 93 -52 98 0 5 -4 9 -10 9 -5 0 -10 4 -10 9 0 9 -53 106 -88 161 -9 14
-17 27 -17 30 0 3 -8 16 -16 30 -16 24 -222 379 -262 450 -18 33 -52 91 -90
155 -10 16 -20 38 -23 48 -4 9 -10 17 -15 17 -5 0 -9 5 -9 10 0 9 -91 170
-169 300 -11 19 -24 42 -28 50 -3 8 -18 33 -32 55 -13 22 -38 65 -54 95 -16
30 -36 62 -43 71 -8 8 -14 18 -14 22 0 3 -35 66 -78 139 -43 73 -92 158 -109
188 -41 75 -142 249 -161 280 -9 14 -15 27 -13 29 1 2 -1 7 -6 10 -4 3 -13 15
-19 26 -19 35 -126 219 -145 250 -10 17 -23 41 -29 54 -6 13 -19 35 -29 50
-10 14 -30 47 -44 72 -14 25 -76 133 -137 240 -62 107 -122 212 -134 234 -12
22 -25 44 -29 50 -9 11 -199 340 -229 395 -10 19 -28 51 -39 70 -94 158 -129
220 -129 229 0 6 -3 11 -7 11 -5 0 -35 50 -68 110 -33 60 -63 110 -67 110 -4
0 -14 -10 -22 -22z"/>
<path d="M6033 13482 c-62 -1 -113 -5 -113 -8 0 -6 27 -54 105 -189 32 -55 65
-113 74 -130 9 -16 19 -31 24 -33 4 -2 7 -8 7 -13 0 -5 27 -54 60 -110 33 -55
60 -105 60 -109 0 -5 3 -10 8 -12 4 -1 16 -21 27 -43 11 -22 22 -42 25 -45 3
-3 33 -52 65 -110 33 -58 64 -113 70 -122 5 -9 17 -29 26 -45 9 -15 26 -46 39
-68 12 -22 34 -60 48 -85 14 -25 36 -61 49 -80 12 -19 23 -40 23 -47 0 -7 5
-13 10 -13 6 0 10 -5 10 -10 0 -6 23 -50 51 -98 29 -48 69 -116 89 -152 178
-307 264 -457 292 -507 17 -32 34 -60 37 -63 3 -3 19 -30 35 -60 16 -30 40
-71 53 -90 13 -19 23 -40 23 -47 0 -7 5 -13 10 -13 6 0 10 -4 10 -9 0 -5 36
-70 80 -146 44 -76 80 -139 80 -140 0 -2 22 -40 50 -84 27 -45 46 -81 42 -81
-4 0 -2 -4 3 -8 9 -6 45 -66 158 -262 11 -19 28 -51 39 -70 11 -19 28 -48 38
-65 11 -16 26 -43 35 -60 8 -16 23 -43 33 -60 10 -16 30 -50 44 -75 14 -25 46
-80 72 -123 25 -43 46 -80 46 -82 0 -2 18 -33 40 -67 22 -35 40 -69 40 -75 0
-7 5 -13 10 -13 6 0 10 -6 10 -14 0 -7 7 -19 15 -26 8 -6 14 -15 13 -18 -3
-11 22 -52 31 -52 10 0 44 57 62 103 6 15 15 27 20 27 5 0 9 4 9 10 0 8 59
113 91 160 5 8 12 23 15 33 4 9 11 17 17 17 6 0 8 3 4 6 -3 4 9 31 28 60 19
30 35 57 35 59 0 3 12 24 27 48 15 23 28 44 28 47 0 3 26 48 56 100 78 131
169 289 188 325 9 16 18 32 21 35 5 5 11 15 55 94 13 23 46 82 75 131 29 50
62 106 73 125 35 63 246 428 266 462 11 18 26 44 34 58 7 14 73 129 147 255
73 127 144 250 158 275 14 25 42 74 64 109 21 34 38 65 38 67 0 2 17 32 38 66
21 35 41 70 45 78 4 8 18 33 32 55 13 22 32 55 40 74 9 19 23 40 31 48 8 8 14
21 14 29 0 8 5 14 10 14 6 0 10 4 10 10 0 5 14 33 31 62 35 58 59 100 97 168
14 25 52 89 84 143 32 55 58 101 58 103 0 3 16 29 35 59 19 30 31 55 27 55 -4
0 -2 4 4 8 6 4 24 30 38 57 15 28 47 83 71 123 l44 72 -127 1 c-109 0 -264 -1
-297 -2 -5 -1 -93 0 -195 1 -102 1 -192 0 -200 -2 -19 -4 -29 -17 -75 -103
-21 -38 -44 -77 -51 -86 -8 -8 -14 -18 -14 -22 0 -3 -14 -30 -31 -59 -35 -58
-58 -98 -97 -168 -14 -25 -45 -79 -70 -120 -48 -80 -48 -81 -139 -240 -33 -58
-95 -166 -138 -240 -43 -74 -84 -145 -89 -157 -6 -13 -14 -23 -18 -23 -5 0 -8
-4 -8 -9 0 -9 -90 -172 -100 -181 -3 -3 -12 -19 -21 -35 -13 -25 -121 -214
-195 -342 -44 -75 -168 -292 -192 -333 -14 -25 -32 -56 -41 -70 -10 -14 -28
-46 -42 -72 -13 -27 -27 -48 -31 -48 -5 0 -8 -6 -8 -13 0 -7 -11 -28 -24 -45
l-24 -33 -11 28 c-6 15 -17 37 -24 48 -7 11 -39 67 -72 124 -33 56 -75 128
-93 160 -18 31 -35 64 -39 74 -3 9 -9 17 -14 17 -5 0 -9 4 -9 10 0 5 -19 42
-43 82 -24 40 -46 80 -50 88 -4 8 -16 29 -26 45 -11 17 -28 46 -39 65 -28 50
-55 98 -89 155 -16 28 -32 57 -36 65 -4 8 -18 33 -32 55 -14 22 -28 47 -32 55
-4 8 -26 46 -50 84 -24 39 -43 76 -43 82 0 7 -4 14 -8 16 -4 2 -43 66 -87 143
-44 77 -82 142 -85 145 -3 3 -18 30 -34 60 -16 30 -34 62 -41 70 -6 8 -17 26
-23 40 -7 14 -20 39 -31 55 -10 17 -28 47 -39 67 -34 60 -242 419 -269 463
-13 22 -31 54 -40 72 -16 31 -18 32 -90 35 -41 2 -83 0 -93 -4 -11 -4 -22 -3
-25 2 -4 7 -13 7 -24 0 -10 -5 -21 -7 -23 -4 -8 7 -245 7 -257 -1 -6 -3 -11
-2 -11 4 0 7 -8 7 -22 2 -13 -4 -34 -5 -48 -2 -14 3 -76 5 -137 3z"/>
<path d="M21960 13482 l-65 -3 1 -1835 c0 -1009 3 -1837 6 -1840 3 -3 14 -5
24 -5 25 0 134 0 159 1 11 0 38 0 60 -1 22 0 47 0 55 0 8 0 62 0 120 0 58 0
112 0 120 0 8 0 51 0 96 0 l81 0 0 1841 0 1840 -31 0 c-341 4 -574 4 -626 2z"/>
<path d="M11227 12603 c-4 -3 -44 -7 -91 -9 -65 -3 -282 -40 -341 -58 -5 -2
-17 -5 -25 -8 -8 -3 -33 -11 -55 -17 -22 -7 -59 -21 -82 -32 -24 -10 -47 -19
-52 -19 -4 0 -41 -18 -81 -40 -40 -22 -77 -40 -81 -40 -5 0 -9 -3 -9 -8 0 -4
-17 -16 -37 -27 -20 -11 -41 -24 -47 -30 -6 -5 -29 -23 -51 -40 -52 -38 -182
-168 -220 -220 -16 -22 -32 -42 -35 -45 -37 -36 -167 -297 -186 -375 -2 -5
-10 -35 -19 -65 -18 -64 -22 -88 -41 -210 -16 -107 -10 -339 11 -449 3 -14 8
-40 11 -58 19 -114 92 -296 167 -418 95 -154 239 -307 382 -406 39 -27 75 -52
80 -57 20 -15 191 -99 250 -122 33 -13 64 -27 70 -32 5 -4 21 -8 35 -8 14 0
30 -4 35 -8 17 -14 199 -54 300 -66 44 -5 212 -18 240 -19 32 0 249 14 254 17
3 2 28 7 55 10 68 10 176 33 209 45 15 6 27 7 27 4 0 -4 5 -2 12 5 7 7 18 12
26 12 62 0 482 218 482 251 0 4 8 10 18 13 24 8 212 193 212 209 0 7 -24 25
-52 41 -80 42 -263 149 -282 165 -9 7 -16 11 -16 8 0 -5 -100 51 -125 70 -12
9 -61 37 -102 58 -25 13 -29 11 -92 -44 -55 -48 -162 -121 -176 -121 -3 0 -28
-11 -57 -24 -109 -50 -206 -67 -383 -70 -122 -2 -183 5 -290 35 -101 29 -237
99 -309 160 -70 59 -156 156 -156 177 0 6 -3 12 -8 12 -4 0 -13 15 -21 33 -8
17 -17 34 -21 37 -4 3 -10 18 -14 34 -7 28 -6 28 29 24 19 -2 35 -2 35 2 0 6
118 5 125 -1 2 -3 30 -2 62 1 32 3 75 3 96 -1 20 -3 37 -3 37 0 0 3 28 5 62 4
65 -1 147 -3 207 -3 19 -1 38 -3 43 -6 4 -3 8 -2 8 3 0 7 114 9 130 3 3 -1 9
-2 14 -1 14 3 235 2 289 -1 26 -2 47 -1 47 2 0 3 33 4 72 2 93 -3 161 -2 167
3 2 3 10 0 18 -6 7 -6 13 -8 13 -3 0 7 136 8 275 3 6 0 39 0 75 0 36 1 74 1
85 1 45 -1 211 -1 223 -1 6 0 36 1 66 2 l54 2 6 51 c4 28 9 74 12 101 11 91 5
287 -11 373 -1 9 -6 37 -11 62 -9 51 -11 59 -13 63 -2 1 -4 12 -7 24 -21 113
-118 326 -201 443 -65 89 -235 270 -255 270 -4 0 -18 10 -31 23 -25 23 -52 43
-77 54 -8 4 -17 10 -20 14 -3 4 -48 29 -100 56 -123 64 -263 115 -380 139 -14
2 -32 7 -40 9 -8 2 -37 7 -65 11 -27 3 -53 8 -56 10 -4 2 -69 6 -144 9 -76 3
-141 8 -145 10 -4 2 -10 2 -13 -2z m223 -656 c8 -3 29 -8 46 -10 129 -19 332
-142 414 -253 61 -83 78 -113 109 -193 l20 -53 -55 4 c-30 1 -54 -1 -54 -5 0
-5 -4 -6 -9 -2 -5 3 -31 5 -58 5 -26 0 -57 0 -68 0 -11 0 -38 -1 -60 -1 -22 0
-47 0 -55 0 -8 0 -62 0 -120 0 -58 0 -111 0 -117 0 -7 1 -19 1 -25 2 -7 0 -46
0 -85 -1 -40 -1 -77 1 -83 5 -5 3 -10 3 -10 -2 0 -8 -68 -8 -173 -2 -25 2 -49
1 -52 -2 -3 -3 -22 -3 -42 0 -20 3 -67 4 -105 1 -38 -3 -74 -2 -80 1 -5 4 -25
3 -43 -1 -18 -4 -38 -4 -45 0 -7 4 -27 4 -46 0 -18 -4 -36 -5 -39 -2 -3 4 -23
5 -45 3 -36 -2 -39 0 -35 20 5 27 68 156 92 189 10 13 52 58 94 100 57 56 96
85 160 117 102 50 109 53 224 76 68 14 311 17 345 4z"/>
<path d="M19909 12606 c-2 -2 -53 -7 -114 -11 -60 -3 -123 -8 -140 -10 -56 -6
-107 -15 -114 -19 -3 -3 -27 -7 -51 -11 -73 -11 -274 -83 -368 -132 -157 -82
-257 -156 -373 -278 -115 -121 -195 -245 -256 -395 -42 -104 -46 -114 -48
-125 -2 -5 -10 -37 -18 -70 -9 -33 -18 -73 -21 -90 -3 -16 -8 -40 -10 -52 -22
-106 -22 -450 0 -484 2 -4 6 -27 9 -50 12 -101 79 -280 157 -419 20 -37 70
-114 77 -120 3 -3 19 -23 36 -45 97 -132 309 -300 493 -393 57 -29 218 -92
235 -92 8 0 17 -3 21 -7 3 -4 12 -8 19 -10 7 -1 32 -7 57 -13 161 -41 330 -63
457 -60 34 1 67 -1 73 -5 5 -3 10 -3 10 2 0 4 21 8 48 9 48 0 157 10 202 19
14 2 36 6 50 9 56 10 232 57 270 73 8 4 17 7 20 8 31 11 47 18 170 73 14 7 34
18 45 24 11 7 46 30 78 51 32 20 61 37 63 37 3 0 11 6 18 13 7 6 28 23 47 37
49 36 219 206 219 219 0 6 -4 11 -10 11 -5 0 -62 30 -125 68 -64 37 -133 76
-153 88 -20 11 -82 47 -137 79 -55 32 -119 69 -142 82 l-43 24 -35 -37 c-19
-19 -35 -34 -35 -31 0 3 -13 -7 -28 -21 -16 -15 -42 -34 -58 -42 -16 -8 -31
-18 -34 -21 -16 -22 -204 -92 -294 -110 -80 -17 -272 -19 -364 -4 -231 37
-440 155 -557 315 -40 54 -108 180 -101 187 4 5 125 5 209 1 26 -2 47 -1 47 2
0 3 33 4 72 2 93 -3 161 -2 167 3 2 3 10 0 18 -6 7 -6 13 -8 13 -3 0 7 143 8
275 3 6 0 39 0 75 0 36 1 73 1 83 1 9 0 50 -1 90 0 39 0 93 -1 120 -2 26 -2
47 -1 47 2 0 3 33 4 72 2 93 -3 161 -2 167 3 2 3 10 0 18 -6 7 -6 13 -8 13 -3
0 7 136 8 275 3 31 -1 177 1 248 4 26 1 47 -2 47 -6 0 -5 4 -6 9 -3 5 4 46 7
90 7 45 0 81 4 82 7 0 4 2 16 4 27 26 131 26 377 0 520 -11 62 -48 210 -55
220 -4 6 -10 23 -14 39 -14 59 -124 265 -176 330 -149 186 -284 299 -477 399
-103 53 -275 116 -363 133 -14 2 -47 9 -75 14 -81 15 -131 21 -221 25 -47 3
-89 7 -93 9 -5 3 -10 4 -12 2z m221 -674 c222 -59 384 -188 475 -377 43 -89
49 -105 44 -109 -4 -5 -33 -6 -148 -6 -29 0 -57 -2 -60 -5 -4 -2 -13 0 -19 4
-7 4 -33 5 -57 1 -25 -4 -47 -5 -49 -2 -5 4 -229 5 -251 1 -5 -1 -14 -1 -19 0
-21 4 -136 4 -140 0 -2 -2 -41 -2 -86 1 -45 3 -86 2 -91 -1 -6 -3 -30 -3 -54
1 -24 4 -49 4 -55 0 -7 -4 -26 -4 -43 -1 -18 4 -49 4 -70 0 -20 -3 -40 -2 -43
2 -3 5 -9 7 -13 5 -8 -6 -51 -7 -203 -6 -122 1 -115 -9 -67 96 98 218 285 358
544 409 94 18 315 11 405 -13z"/>
<path d="M16615 12590 c-27 -4 -70 -10 -95 -14 -59 -8 -76 -11 -130 -26 -25
-7 -54 -14 -65 -17 -37 -8 -50 -11 -52 -13 -2 -2 -6 -3 -10 -5 -9 -2 -19 -6
-103 -38 -87 -33 -237 -115 -274 -149 -11 -10 -25 -18 -31 -18 -6 0 -18 -8
-26 -17 -9 -10 -33 -31 -54 -48 -21 -16 -59 -52 -84 -79 -25 -27 -53 -56 -62
-65 -40 -38 -133 -181 -179 -272 -43 -86 -88 -208 -105 -281 -35 -156 -40
-208 -40 -393 1 -146 5 -214 18 -270 3 -11 8 -40 12 -65 11 -68 70 -240 110
-322 42 -84 131 -221 176 -269 74 -81 139 -147 139 -144 0 2 12 -7 27 -21 74
-69 267 -181 393 -228 103 -38 119 -43 170 -57 128 -32 193 -43 345 -55 98 -7
78 -7 215 0 135 7 180 12 275 32 39 9 80 17 92 20 109 22 427 163 441 196 2 4
9 8 16 8 32 0 285 236 320 298 5 9 17 25 27 35 21 22 55 85 49 90 -5 3 -198
115 -254 147 -18 10 -64 37 -101 59 -37 23 -69 41 -71 41 -2 0 -27 14 -56 31
-29 18 -68 41 -87 51 l-35 20 -18 -24 c-9 -12 -18 -26 -18 -30 0 -17 -118
-143 -182 -195 -26 -21 -166 -92 -192 -97 -6 -2 -29 -8 -51 -14 -76 -22 -120
-26 -250 -26 -123 0 -149 2 -220 19 -232 55 -414 206 -508 420 -14 33 -29 75
-32 94 -3 19 -8 38 -11 42 -21 35 -27 311 -8 399 30 143 69 232 143 330 42 55
141 149 159 150 6 0 12 4 12 8 0 16 145 80 235 103 152 39 380 33 520 -15 6
-1 19 -6 30 -10 82 -28 175 -88 244 -156 85 -84 103 -105 126 -150 8 -16 18
-30 21 -30 10 0 69 35 72 43 2 4 8 7 13 7 4 0 46 22 91 49 90 53 91 53 282
162 71 41 134 82 140 91 8 13 6 22 -12 41 -12 13 -22 26 -22 30 0 16 -149 185
-201 229 -24 20 -56 47 -71 60 -43 37 -216 141 -285 172 -77 33 -223 86 -223
81 0 -3 -11 0 -25 5 -14 5 -36 12 -48 14 -54 11 -135 26 -172 32 -60 9 -393
12 -450 4z"/>
<path d="M13335 12520 l-50 -5 -2 -815 c-1 -448 -2 -821 -2 -827 0 -7 0 -251
1 -542 l2 -529 66 -2 c62 -1 73 -1 103 1 13 1 80 0 137 -2 19 -1 42 -1 50 0
30 1 259 2 267 0 4 -1 13 0 18 1 6 1 26 2 45 3 l34 2 2 650 c0 358 4 668 8
690 25 137 104 298 197 399 175 191 497 283 769 221 14 -4 37 -8 53 -11 l27
-5 0 386 0 386 -97 -6 c-79 -4 -245 -31 -298 -48 -5 -2 -33 -11 -61 -19 -78
-24 -198 -82 -272 -132 -58 -38 -176 -145 -207 -187 -52 -69 -105 -187 -105
-231 0 -10 -4 -18 -8 -18 -4 0 -8 142 -7 316 0 217 -3 318 -11 321 -16 6 -601
9 -659 3z"/>
</g>
</svg>
